TITLE ""
FILE "Disc4Track58.mp3" MP3
  TRACK 01 AUDIO
    TITLE "Disc4Track58_01"
    INDEX 01 00:00:00
  TRACK 02 AUDIO
    TITLE "Disc4Track58_02"
    INDEX 01 00:03:60
  TRACK 03 AUDIO
    TITLE "Disc4Track58_03"
    INDEX 01 00:04:02
  TRACK 04 AUDIO
    TITLE "Disc4Track58_04"
    INDEX 01 00:05:47
  TRACK 05 AUDIO
    TITLE "Disc4Track58_05"
    INDEX 01 00:06:52
  TRACK 06 AUDIO
    TITLE "Disc4Track58_06"
    INDEX 01 00:08:22
  TRACK 07 AUDIO
    TITLE "Disc4Track58_07"
    INDEX 01 00:08:53
  TRACK 08 AUDIO
    TITLE "Disc4Track58_08"
    INDEX 01 00:10:22
  TRACK 09 AUDIO
    TITLE "Disc4Track58_09"
    INDEX 01 00:11:32
  TRACK 10 AUDIO
    TITLE "Disc4Track58_10"
    INDEX 01 00:12:74
  TRACK 11 AUDIO
    TITLE "Disc4Track58_11"
    INDEX 01 00:15:16
  TRACK 12 AUDIO
    TITLE "Disc4Track58_12"
    INDEX 01 00:15:47
  TRACK 13 AUDIO
    TITLE "Disc4Track58_13"
    INDEX 01 00:17:32
  TRACK 14 AUDIO
    TITLE "Disc4Track58_14"
    INDEX 01 00:19:00
  TRACK 15 AUDIO
    TITLE "Disc4Track58_15"
    INDEX 01 00:20:60
  TRACK 16 AUDIO
    TITLE "Disc4Track58_16"
    INDEX 01 00:21:26
  TRACK 17 AUDIO
    TITLE "Disc4Track58_17"
    INDEX 01 00:22:61
  TRACK 18 AUDIO
    TITLE "Disc4Track58_18"
    INDEX 01 00:24:38
  TRACK 19 AUDIO
    TITLE "Disc4Track58_19"
    INDEX 01 00:26:00
  TRACK 20 AUDIO
    TITLE "Disc4Track58_20"
    INDEX 01 00:28:13
  TRACK 21 AUDIO
    TITLE "Disc4Track58_21"
    INDEX 01 00:28:44
  TRACK 22 AUDIO
    TITLE "Disc4Track58_22"
    INDEX 01 00:29:69
  TRACK 23 AUDIO
    TITLE "Disc4Track58_23"
    INDEX 01 00:32:12
  TRACK 24 AUDIO
    TITLE "Disc4Track58_24"
    INDEX 01 00:33:37
  TRACK 25 AUDIO
    TITLE "Disc4Track58_25"
    INDEX 01 00:37:55
  TRACK 26 AUDIO
    TITLE "Disc4Track58_26"
    INDEX 01 00:38:11
  TRACK 27 AUDIO
    TITLE "Disc4Track58_27"
    INDEX 01 00:39:46
  TRACK 28 AUDIO
    TITLE "Disc4Track58_28"
    INDEX 01 00:41:39
  TRACK 29 AUDIO
    TITLE "Disc4Track58_29"
    INDEX 01 00:42:71
  TRACK 30 AUDIO
    TITLE "Disc4Track58_30"
    INDEX 01 00:47:16
  TRACK 31 AUDIO
    TITLE "Disc4Track58_31"
    INDEX 01 00:47:47
  TRACK 32 AUDIO
    TITLE "Disc4Track58_32"
    INDEX 01 00:49:19
  TRACK 33 AUDIO
    TITLE "Disc4Track58_33"
    INDEX 01 00:51:29
  TRACK 34 AUDIO
    TITLE "Disc4Track58_34"
    INDEX 01 00:53:01
  TRACK 35 AUDIO
    TITLE "Disc4Track58_35"
    INDEX 01 00:53:44
  TRACK 36 AUDIO
    TITLE "Disc4Track58_36"
    INDEX 01 00:55:03
  TRACK 37 AUDIO
    TITLE "Disc4Track58_37"
    INDEX 01 00:58:33
  TRACK 38 AUDIO
    TITLE "Disc4Track58_38"
    INDEX 01 00:59:68
  TRACK 39 AUDIO
    TITLE "Disc4Track58_39"
    INDEX 01 01:04:06
  TRACK 40 AUDIO
    TITLE "Disc4Track58_40"
    INDEX 01 01:04:38
  TRACK 41 AUDIO
    TITLE "Disc4Track58_41"
    INDEX 01 01:06:01
  TRACK 42 AUDIO
    TITLE "Disc4Track58_42"
    INDEX 01 01:08:36
  TRACK 43 AUDIO
    TITLE "Disc4Track58_43"
    INDEX 01 01:09:70
